<svg xmlns="http://www.w3.org/2000/svg" width="48" height="48" fill="none"><path d="M24 20.502c-7.441 0-17.916 11.503-17.916 18.768-.083 3.272 2.424 5.232 6.647 5.232 4.575 0 7.603-2.353 11.269-2.353 3.703 0 6.74 2.353 11.268 2.353 4.135 0 6.726-1.958 6.726-5.227-.079-7.26-10.55-18.773-17.994-18.773zM10.2 19.32c-.973-3.245-3.985-5.355-6.715-4.698-2.73.656-4.151 3.817-3.179 7.06.972 3.254 3.984 5.363 6.714 4.707 2.73-.656 4.145-3.825 3.18-7.069zm7.94-1.95c2.894-.761 4.347-4.603 3.235-8.753-1.113-4.15-4.36-6.666-7.265-5.988-2.894.762-4.347 4.603-3.234 8.754 1.114 4.066 4.358 6.756 7.264 5.987zm26.381-2.746c-2.73-.572-5.742 1.453-6.714 4.698-.972 3.247.445 6.41 3.175 7.066 2.73.572 5.73-1.453 6.715-4.698.968-3.25-.532-6.41-3.176-7.066zM29.86 17.37c2.822.762 6.152-1.921 7.265-5.987 1.112-4.066-.34-7.993-3.235-8.754-2.822-.761-6.152 1.922-7.264 5.988-1.116 4.066.337 7.994 3.234 8.753z" fill="#000"/></svg>